$MeshFormat
4.1 0 8
$EndMeshFormat
$Entities
88 132 66 11
1 0 0 15 0 
2 0 0 0 0 
3 0 22.5 15 0 
4 0 22.5 0 0 
5 22.5 0 15 0 
6 22.5 0 0 0 
7 22.5 22.5 15 0 
8 22.5 22.5 0 0 
9 0 0 30 0 
10 0 0 15 0 
11 0 22.5 30 0 
12 0 22.5 15 0 
13 22.5 0 30 0 
14 22.5 0 15 0 
15 22.5 22.5 30 0 
16 22.5 22.5 15 0 
17 0 0 45 0 
18 0 0 30 0 
19 0 22.5 45 0 
20 0 22.5 30 0 
21 22.5 0 45 0 
22 22.5 0 30 0 
23 22.5 22.5 45 0 
24 22.5 22.5 30 0 
25 0 0 60 0 
26 0 0 45 0 
27 0 22.5 60 0 
28 0 22.5 45 0 
29 22.5 0 60 0 
30 22.5 0 45 0 
31 22.5 22.5 60 0 
32 22.5 22.5 45 0 
33 0 0 75 0 
34 0 0 60 0 
35 0 22.5 75 0 
36 0 22.5 60 0 
37 22.5 0 75 0 
38 22.5 0 60 0 
39 22.5 22.5 75 0 
40 22.5 22.5 60 0 
41 0 0 90 0 
42 0 0 75 0 
43 0 22.5 90 0 
44 0 22.5 75 0 
45 22.5 0 90 0 
46 22.5 0 75 0 
47 22.5 22.5 90 0 
48 22.5 22.5 75 0 
49 0 0 105 0 
50 0 0 90 0 
51 0 22.5 105 0 
52 0 22.5 90 0 
53 22.5 0 105 0 
54 22.5 0 90 0 
55 22.5 22.5 105 0 
56 22.5 22.5 90 0 
57 0 0 120 0 
58 0 0 105 0 
59 0 22.5 120 0 
60 0 22.5 105 0 
61 22.5 0 120 0 
62 22.5 0 105 0 
63 22.5 22.5 120 0 
64 22.5 22.5 105 0 
65 0 0 135 0 
66 0 0 120 0 
67 0 22.5 135 0 
68 0 22.5 120 0 
69 22.5 0 135 0 
70 22.5 0 120 0 
71 22.5 22.5 135 0 
72 22.5 22.5 120 0 
73 0 0 150 0 
74 0 0 135 0 
75 0 22.5 150 0 
76 0 22.5 135 0 
77 22.5 0 150 0 
78 22.5 0 135 0 
79 22.5 22.5 150 0 
80 22.5 22.5 135 0 
81 0 0 165 0 
82 0 0 150 0 
83 0 22.5 165 0 
84 0 22.5 150 0 
85 22.5 0 165 0 
86 22.5 0 150 0 
87 22.5 22.5 165 0 
88 22.5 22.5 150 0 
1 -1e-07 -1e-07 -1.000000002804313e-07 1e-07 1e-07 15.0000001 0 2 2 -1 
2 -1e-07 -9.99999993922529e-08 14.9999999 1e-07 22.5000001 15.0000001 0 2 1 -3 
3 -1e-07 22.4999999 -1.000000002804313e-07 1e-07 22.5000001 15.0000001 0 2 4 -3 
4 -1e-07 -9.99999993922529e-08 -1e-07 1e-07 22.5000001 1e-07 0 2 2 -4 
5 22.4999999 -1e-07 -1.000000002804313e-07 22.5000001 1e-07 15.0000001 0 2 6 -5 
6 22.4999999 -9.99999993922529e-08 14.9999999 22.5000001 22.5000001 15.0000001 0 2 5 -7 
7 22.4999999 22.4999999 -1.000000002804313e-07 22.5000001 22.5000001 15.0000001 0 2 8 -7 
8 22.4999999 -9.99999993922529e-08 -1e-07 22.5000001 22.5000001 1e-07 0 2 6 -8 
9 -9.99999993922529e-08 -1e-07 -1e-07 22.5000001 1e-07 1e-07 0 2 2 -6 
10 -9.99999993922529e-08 -1e-07 14.9999999 22.5000001 1e-07 15.0000001 0 2 1 -5 
11 -9.99999993922529e-08 22.4999999 -1e-07 22.5000001 22.5000001 1e-07 0 2 4 -8 
12 -9.99999993922529e-08 22.4999999 14.9999999 22.5000001 22.5000001 15.0000001 0 2 3 -7 
13 -1e-07 -1e-07 14.9999999 1e-07 1e-07 30.0000001 0 2 10 -9 
14 -1e-07 -9.99999993922529e-08 29.9999999 1e-07 22.5000001 30.0000001 0 2 9 -11 
15 -1e-07 22.4999999 14.9999999 1e-07 22.5000001 30.0000001 0 2 12 -11 
16 -1e-07 -9.99999993922529e-08 14.9999999 1e-07 22.5000001 15.0000001 0 2 10 -12 
17 22.4999999 -1e-07 14.9999999 22.5000001 1e-07 30.0000001 0 2 14 -13 
18 22.4999999 -9.99999993922529e-08 29.9999999 22.5000001 22.5000001 30.0000001 0 2 13 -15 
19 22.4999999 22.4999999 14.9999999 22.5000001 22.5000001 30.0000001 0 2 16 -15 
20 22.4999999 -9.99999993922529e-08 14.9999999 22.5000001 22.5000001 15.0000001 0 2 14 -16 
21 -9.99999993922529e-08 -1e-07 14.9999999 22.5000001 1e-07 15.0000001 0 2 10 -14 
22 -9.99999993922529e-08 -1e-07 29.9999999 22.5000001 1e-07 30.0000001 0 2 9 -13 
23 -9.99999993922529e-08 22.4999999 14.9999999 22.5000001 22.5000001 15.0000001 0 2 12 -16 
24 -9.99999993922529e-08 22.4999999 29.9999999 22.5000001 22.5000001 30.0000001 0 2 11 -15 
25 -1e-07 -1e-07 29.9999999 1e-07 1e-07 45.0000001 0 2 18 -17 
26 -1e-07 -9.99999993922529e-08 44.9999999 1e-07 22.5000001 45.0000001 0 2 17 -19 
27 -1e-07 22.4999999 29.9999999 1e-07 22.5000001 45.0000001 0 2 20 -19 
28 -1e-07 -9.99999993922529e-08 29.9999999 1e-07 22.5000001 30.0000001 0 2 18 -20 
29 22.4999999 -1e-07 29.9999999 22.5000001 1e-07 45.0000001 0 2 22 -21 
30 22.4999999 -9.99999993922529e-08 44.9999999 22.5000001 22.5000001 45.0000001 0 2 21 -23 
31 22.4999999 22.4999999 29.9999999 22.5000001 22.5000001 45.0000001 0 2 24 -23 
32 22.4999999 -9.99999993922529e-08 29.9999999 22.5000001 22.5000001 30.0000001 0 2 22 -24 
33 -9.99999993922529e-08 -1e-07 29.9999999 22.5000001 1e-07 30.0000001 0 2 18 -22 
34 -9.99999993922529e-08 -1e-07 44.9999999 22.5000001 1e-07 45.0000001 0 2 17 -21 
35 -9.99999993922529e-08 22.4999999 29.9999999 22.5000001 22.5000001 30.0000001 0 2 20 -24 
36 -9.99999993922529e-08 22.4999999 44.9999999 22.5000001 22.5000001 45.0000001 0 2 19 -23 
37 -1e-07 -1e-07 44.9999999 1e-07 1e-07 60.0000001 0 2 26 -25 
38 -1e-07 -9.99999993922529e-08 59.9999999 1e-07 22.5000001 60.0000001 0 2 25 -27 
39 -1e-07 22.4999999 44.9999999 1e-07 22.5000001 60.0000001 0 2 28 -27 
40 -1e-07 -9.99999993922529e-08 44.9999999 1e-07 22.5000001 45.0000001 0 2 26 -28 
41 22.4999999 -1e-07 44.9999999 22.5000001 1e-07 60.0000001 0 2 30 -29 
42 22.4999999 -9.99999993922529e-08 59.9999999 22.5000001 22.5000001 60.0000001 0 2 29 -31 
43 22.4999999 22.4999999 44.9999999 22.5000001 22.5000001 60.0000001 0 2 32 -31 
44 22.4999999 -9.99999993922529e-08 44.9999999 22.5000001 22.5000001 45.0000001 0 2 30 -32 
45 -9.99999993922529e-08 -1e-07 44.9999999 22.5000001 1e-07 45.0000001 0 2 26 -30 
46 -9.99999993922529e-08 -1e-07 59.9999999 22.5000001 1e-07 60.0000001 0 2 25 -29 
47 -9.99999993922529e-08 22.4999999 44.9999999 22.5000001 22.5000001 45.0000001 0 2 28 -32 
48 -9.99999993922529e-08 22.4999999 59.9999999 22.5000001 22.5000001 60.0000001 0 2 27 -31 
49 -1e-07 -1e-07 59.9999999 1e-07 1e-07 75.00000009999999 0 2 34 -33 
50 -1e-07 -9.99999993922529e-08 74.99999990000001 1e-07 22.5000001 75.00000009999999 0 2 33 -35 
51 -1e-07 22.4999999 59.9999999 1e-07 22.5000001 75.00000009999999 0 2 36 -35 
52 -1e-07 -9.99999993922529e-08 59.9999999 1e-07 22.5000001 60.0000001 0 2 34 -36 
53 22.4999999 -1e-07 59.9999999 22.5000001 1e-07 75.00000009999999 0 2 38 -37 
54 22.4999999 -9.99999993922529e-08 74.99999990000001 22.5000001 22.5000001 75.00000009999999 0 2 37 -39 
55 22.4999999 22.4999999 59.9999999 22.5000001 22.5000001 75.00000009999999 0 2 40 -39 
56 22.4999999 -9.99999993922529e-08 59.9999999 22.5000001 22.5000001 60.0000001 0 2 38 -40 
57 -9.99999993922529e-08 -1e-07 59.9999999 22.5000001 1e-07 60.0000001 0 2 34 -38 
58 -9.99999993922529e-08 -1e-07 74.99999990000001 22.5000001 1e-07 75.00000009999999 0 2 33 -37 
59 -9.99999993922529e-08 22.4999999 59.9999999 22.5000001 22.5000001 60.0000001 0 2 36 -40 
60 -9.99999993922529e-08 22.4999999 74.99999990000001 22.5000001 22.5000001 75.00000009999999 0 2 35 -39 
61 -1e-07 -1e-07 74.99999990000001 1e-07 1e-07 90.00000009999999 0 2 42 -41 
62 -1e-07 -9.99999993922529e-08 89.99999990000001 1e-07 22.5000001 90.00000009999999 0 2 41 -43 
63 -1e-07 22.4999999 74.99999990000001 1e-07 22.5000001 90.00000009999999 0 2 44 -43 
64 -1e-07 -9.99999993922529e-08 74.99999990000001 1e-07 22.5000001 75.00000009999999 0 2 42 -44 
65 22.4999999 -1e-07 74.99999990000001 22.5000001 1e-07 90.00000009999999 0 2 46 -45 
66 22.4999999 -9.99999993922529e-08 89.99999990000001 22.5000001 22.5000001 90.00000009999999 0 2 45 -47 
67 22.4999999 22.4999999 74.99999990000001 22.5000001 22.5000001 90.00000009999999 0 2 48 -47 
68 22.4999999 -9.99999993922529e-08 74.99999990000001 22.5000001 22.5000001 75.00000009999999 0 2 46 -48 
69 -9.99999993922529e-08 -1e-07 74.99999990000001 22.5000001 1e-07 75.00000009999999 0 2 42 -46 
70 -9.99999993922529e-08 -1e-07 89.99999990000001 22.5000001 1e-07 90.00000009999999 0 2 41 -45 
71 -9.99999993922529e-08 22.4999999 74.99999990000001 22.5000001 22.5000001 75.00000009999999 0 2 44 -48 
72 -9.99999993922529e-08 22.4999999 89.99999990000001 22.5000001 22.5000001 90.00000009999999 0 2 43 -47 
73 -1e-07 -1e-07 89.99999990000001 1e-07 1e-07 105.0000001 0 2 50 -49 
74 -1e-07 -9.99999993922529e-08 104.9999999 1e-07 22.5000001 105.0000001 0 2 49 -51 
75 -1e-07 22.4999999 89.99999990000001 1e-07 22.5000001 105.0000001 0 2 52 -51 
76 -1e-07 -9.99999993922529e-08 89.99999990000001 1e-07 22.5000001 90.00000009999999 0 2 50 -52 
77 22.4999999 -1e-07 89.99999990000001 22.5000001 1e-07 105.0000001 0 2 54 -53 
78 22.4999999 -9.99999993922529e-08 104.9999999 22.5000001 22.5000001 105.0000001 0 2 53 -55 
79 22.4999999 22.4999999 89.99999990000001 22.5000001 22.5000001 105.0000001 0 2 56 -55 
80 22.4999999 -9.99999993922529e-08 89.99999990000001 22.5000001 22.5000001 90.00000009999999 0 2 54 -56 
81 -9.99999993922529e-08 -1e-07 89.99999990000001 22.5000001 1e-07 90.00000009999999 0 2 50 -54 
82 -9.99999993922529e-08 -1e-07 104.9999999 22.5000001 1e-07 105.0000001 0 2 49 -53 
83 -9.99999993922529e-08 22.4999999 89.99999990000001 22.5000001 22.5000001 90.00000009999999 0 2 52 -56 
84 -9.99999993922529e-08 22.4999999 104.9999999 22.5000001 22.5000001 105.0000001 0 2 51 -55 
85 -1e-07 -1e-07 104.9999999 1e-07 1e-07 120.0000001 0 2 58 -57 
86 -1e-07 -9.99999993922529e-08 119.9999999 1e-07 22.5000001 120.0000001 0 2 57 -59 
87 -1e-07 22.4999999 104.9999999 1e-07 22.5000001 120.0000001 0 2 60 -59 
88 -1e-07 -9.99999993922529e-08 104.9999999 1e-07 22.5000001 105.0000001 0 2 58 -60 
89 22.4999999 -1e-07 104.9999999 22.5000001 1e-07 120.0000001 0 2 62 -61 
90 22.4999999 -9.99999993922529e-08 119.9999999 22.5000001 22.5000001 120.0000001 0 2 61 -63 
91 22.4999999 22.4999999 104.9999999 22.5000001 22.5000001 120.0000001 0 2 64 -63 
92 22.4999999 -9.99999993922529e-08 104.9999999 22.5000001 22.5000001 105.0000001 0 2 62 -64 
93 -9.99999993922529e-08 -1e-07 104.9999999 22.5000001 1e-07 105.0000001 0 2 58 -62 
94 -9.99999993922529e-08 -1e-07 119.9999999 22.5000001 1e-07 120.0000001 0 2 57 -61 
95 -9.99999993922529e-08 22.4999999 104.9999999 22.5000001 22.5000001 105.0000001 0 2 60 -64 
96 -9.99999993922529e-08 22.4999999 119.9999999 22.5000001 22.5000001 120.0000001 0 2 59 -63 
97 -1e-07 -1e-07 119.9999999 1e-07 1e-07 135.0000001 0 2 66 -65 
98 -1e-07 -9.99999993922529e-08 134.9999999 1e-07 22.5000001 135.0000001 0 2 65 -67 
99 -1e-07 22.4999999 119.9999999 1e-07 22.5000001 135.0000001 0 2 68 -67 
100 -1e-07 -9.99999993922529e-08 119.9999999 1e-07 22.5000001 120.0000001 0 2 66 -68 
101 22.4999999 -1e-07 119.9999999 22.5000001 1e-07 135.0000001 0 2 70 -69 
102 22.4999999 -9.99999993922529e-08 134.9999999 22.5000001 22.5000001 135.0000001 0 2 69 -71 
103 22.4999999 22.4999999 119.9999999 22.5000001 22.5000001 135.0000001 0 2 72 -71 
104 22.4999999 -9.99999993922529e-08 119.9999999 22.5000001 22.5000001 120.0000001 0 2 70 -72 
105 -9.99999993922529e-08 -1e-07 119.9999999 22.5000001 1e-07 120.0000001 0 2 66 -70 
106 -9.99999993922529e-08 -1e-07 134.9999999 22.5000001 1e-07 135.0000001 0 2 65 -69 
107 -9.99999993922529e-08 22.4999999 119.9999999 22.5000001 22.5000001 120.0000001 0 2 68 -72 
108 -9.99999993922529e-08 22.4999999 134.9999999 22.5000001 22.5000001 135.0000001 0 2 67 -71 
109 -1e-07 -1e-07 134.9999999 1e-07 1e-07 150.0000001 0 2 74 -73 
110 -1e-07 -9.99999993922529e-08 149.9999999 1e-07 22.5000001 150.0000001 0 2 73 -75 
111 -1e-07 22.4999999 134.9999999 1e-07 22.5000001 150.0000001 0 2 76 -75 
112 -1e-07 -9.99999993922529e-08 134.9999999 1e-07 22.5000001 135.0000001 0 2 74 -76 
113 22.4999999 -1e-07 134.9999999 22.5000001 1e-07 150.0000001 0 2 78 -77 
114 22.4999999 -9.99999993922529e-08 149.9999999 22.5000001 22.5000001 150.0000001 0 2 77 -79 
115 22.4999999 22.4999999 134.9999999 22.5000001 22.5000001 150.0000001 0 2 80 -79 
116 22.4999999 -9.99999993922529e-08 134.9999999 22.5000001 22.5000001 135.0000001 0 2 78 -80 
117 -9.99999993922529e-08 -1e-07 134.9999999 22.5000001 1e-07 135.0000001 0 2 74 -78 
118 -9.99999993922529e-08 -1e-07 149.9999999 22.5000001 1e-07 150.0000001 0 2 73 -77 
119 -9.99999993922529e-08 22.4999999 134.9999999 22.5000001 22.5000001 135.0000001 0 2 76 -80 
120 -9.99999993922529e-08 22.4999999 149.9999999 22.5000001 22.5000001 150.0000001 0 2 75 -79 
121 -1e-07 -1e-07 149.9999999 1e-07 1e-07 165.0000001 0 2 82 -81 
122 -1e-07 -9.99999993922529e-08 164.9999999 1e-07 22.5000001 165.0000001 0 2 81 -83 
123 -1e-07 22.4999999 149.9999999 1e-07 22.5000001 165.0000001 0 2 84 -83 
124 -1e-07 -9.99999993922529e-08 149.9999999 1e-07 22.5000001 150.0000001 0 2 82 -84 
125 22.4999999 -1e-07 149.9999999 22.5000001 1e-07 165.0000001 0 2 86 -85 
126 22.4999999 -9.99999993922529e-08 164.9999999 22.5000001 22.5000001 165.0000001 0 2 85 -87 
127 22.4999999 22.4999999 149.9999999 22.5000001 22.5000001 165.0000001 0 2 88 -87 
128 22.4999999 -9.99999993922529e-08 149.9999999 22.5000001 22.5000001 150.0000001 0 2 86 -88 
129 -9.99999993922529e-08 -1e-07 149.9999999 22.5000001 1e-07 150.0000001 0 2 82 -86 
130 -9.99999993922529e-08 -1e-07 164.9999999 22.5000001 1e-07 165.0000001 0 2 81 -85 
131 -9.99999993922529e-08 22.4999999 149.9999999 22.5000001 22.5000001 150.0000001 0 2 84 -88 
132 -9.99999993922529e-08 22.4999999 164.9999999 22.5000001 22.5000001 165.0000001 0 2 83 -87 
1 -1e-07 -9.99999993922529e-08 -1.000000002804313e-07 1e-07 22.5000001 15.0000001 0 4 -1 4 3 -2 
2 22.4999999 -9.99999993922529e-08 -1.000000002804313e-07 22.5000001 22.5000001 15.0000001 0 4 -5 8 7 -6 
3 -9.99999993922529e-08 -1e-07 -1.000000002804313e-07 22.5000001 1e-07 15.0000001 0 4 -9 1 10 -5 
4 -9.99999993922529e-08 22.4999999 -1.000000002804313e-07 22.5000001 22.5000001 15.0000001 0 4 -11 3 12 -7 
5 -9.99999993922529e-08 -9.99999993922529e-08 -1e-07 22.5000001 22.5000001 1e-07 0 4 -4 9 8 -11 
6 -9.99999993922529e-08 -9.99999993922529e-08 14.9999999 22.5000001 22.5000001 15.0000001 0 4 -2 10 6 -12 
7 -1e-07 -9.99999993922529e-08 14.9999999 1e-07 22.5000001 30.0000001 0 4 -13 16 15 -14 
8 22.4999999 -9.99999993922529e-08 14.9999999 22.5000001 22.5000001 30.0000001 0 4 -17 20 19 -18 
9 -9.99999993922529e-08 -1e-07 14.9999999 22.5000001 1e-07 30.0000001 0 4 -21 13 22 -17 
10 -9.99999993922529e-08 22.4999999 14.9999999 22.5000001 22.5000001 30.0000001 0 4 -23 15 24 -19 
11 -9.99999993922529e-08 -9.99999993922529e-08 14.9999999 22.5000001 22.5000001 15.0000001 0 4 -16 21 20 -23 
12 -9.99999993922529e-08 -9.99999993922529e-08 29.9999999 22.5000001 22.5000001 30.0000001 0 4 -14 22 18 -24 
13 -1e-07 -9.99999993922529e-08 29.9999999 1e-07 22.5000001 45.0000001 0 4 -25 28 27 -26 
14 22.4999999 -9.99999993922529e-08 29.9999999 22.5000001 22.5000001 45.0000001 0 4 -29 32 31 -30 
15 -9.99999993922529e-08 -1e-07 29.9999999 22.5000001 1e-07 45.0000001 0 4 -33 25 34 -29 
16 -9.99999993922529e-08 22.4999999 29.9999999 22.5000001 22.5000001 45.0000001 0 4 -35 27 36 -31 
17 -9.99999993922529e-08 -9.99999993922529e-08 29.9999999 22.5000001 22.5000001 30.0000001 0 4 -28 33 32 -35 
18 -9.99999993922529e-08 -9.99999993922529e-08 44.9999999 22.5000001 22.5000001 45.0000001 0 4 -26 34 30 -36 
19 -1e-07 -9.99999993922529e-08 44.9999999 1e-07 22.5000001 60.0000001 0 4 -37 40 39 -38 
20 22.4999999 -9.99999993922529e-08 44.9999999 22.5000001 22.5000001 60.0000001 0 4 -41 44 43 -42 
21 -9.99999993922529e-08 -1e-07 44.9999999 22.5000001 1e-07 60.0000001 0 4 -45 37 46 -41 
22 -9.99999993922529e-08 22.4999999 44.9999999 22.5000001 22.5000001 60.0000001 0 4 -47 39 48 -43 
23 -9.99999993922529e-08 -9.99999993922529e-08 44.9999999 22.5000001 22.5000001 45.0000001 0 4 -40 45 44 -47 
24 -9.99999993922529e-08 -9.99999993922529e-08 59.9999999 22.5000001 22.5000001 60.0000001 0 4 -38 46 42 -48 
25 -1e-07 -9.99999993922529e-08 59.9999999 1e-07 22.5000001 75.00000009999999 0 4 -49 52 51 -50 
26 22.4999999 -9.99999993922529e-08 59.9999999 22.5000001 22.5000001 75.00000009999999 0 4 -53 56 55 -54 
27 -9.99999993922529e-08 -1e-07 59.9999999 22.5000001 1e-07 75.00000009999999 0 4 -57 49 58 -53 
28 -9.99999993922529e-08 22.4999999 59.9999999 22.5000001 22.5000001 75.00000009999999 0 4 -59 51 60 -55 
29 -9.99999993922529e-08 -9.99999993922529e-08 59.9999999 22.5000001 22.5000001 60.0000001 0 4 -52 57 56 -59 
30 -9.99999993922529e-08 -9.99999993922529e-08 74.99999990000001 22.5000001 22.5000001 75.00000009999999 0 4 -50 58 54 -60 
31 -1e-07 -9.99999993922529e-08 74.99999990000001 1e-07 22.5000001 90.00000009999999 0 4 -61 64 63 -62 
32 22.4999999 -9.99999993922529e-08 74.99999990000001 22.5000001 22.5000001 90.00000009999999 0 4 -65 68 67 -66 
33 -9.99999993922529e-08 -1e-07 74.99999990000001 22.5000001 1e-07 90.00000009999999 0 4 -69 61 70 -65 
34 -9.99999993922529e-08 22.4999999 74.99999990000001 22.5000001 22.5000001 90.00000009999999 0 4 -71 63 72 -67 
35 -9.99999993922529e-08 -9.99999993922529e-08 74.99999990000001 22.5000001 22.5000001 75.00000009999999 0 4 -64 69 68 -71 
36 -9.99999993922529e-08 -9.99999993922529e-08 89.99999990000001 22.5000001 22.5000001 90.00000009999999 0 4 -62 70 66 -72 
37 -1e-07 -9.99999993922529e-08 89.99999990000001 1e-07 22.5000001 105.0000001 0 4 -73 76 75 -74 
38 22.4999999 -9.99999993922529e-08 89.99999990000001 22.5000001 22.5000001 105.0000001 0 4 -77 80 79 -78 
39 -9.99999993922529e-08 -1e-07 89.99999990000001 22.5000001 1e-07 105.0000001 0 4 -81 73 82 -77 
40 -9.99999993922529e-08 22.4999999 89.99999990000001 22.5000001 22.5000001 105.0000001 0 4 -83 75 84 -79 
41 -9.99999993922529e-08 -9.99999993922529e-08 89.99999990000001 22.5000001 22.5000001 90.00000009999999 0 4 -76 81 80 -83 
42 -9.99999993922529e-08 -9.99999993922529e-08 104.9999999 22.5000001 22.5000001 105.0000001 0 4 -74 82 78 -84 
43 -1e-07 -9.99999993922529e-08 104.9999999 1e-07 22.5000001 120.0000001 0 4 -85 88 87 -86 
44 22.4999999 -9.99999993922529e-08 104.9999999 22.5000001 22.5000001 120.0000001 0 4 -89 92 91 -90 
45 -9.99999993922529e-08 -1e-07 104.9999999 22.5000001 1e-07 120.0000001 0 4 -93 85 94 -89 
46 -9.99999993922529e-08 22.4999999 104.9999999 22.5000001 22.5000001 120.0000001 0 4 -95 87 96 -91 
47 -9.99999993922529e-08 -9.99999993922529e-08 104.9999999 22.5000001 22.5000001 105.0000001 0 4 -88 93 92 -95 
48 -9.99999993922529e-08 -9.99999993922529e-08 119.9999999 22.5000001 22.5000001 120.0000001 0 4 -86 94 90 -96 
49 -1e-07 -9.99999993922529e-08 119.9999999 1e-07 22.5000001 135.0000001 0 4 -97 100 99 -98 
50 22.4999999 -9.99999993922529e-08 119.9999999 22.5000001 22.5000001 135.0000001 0 4 -101 104 103 -102 
51 -9.99999993922529e-08 -1e-07 119.9999999 22.5000001 1e-07 135.0000001 0 4 -105 97 106 -101 
52 -9.99999993922529e-08 22.4999999 119.9999999 22.5000001 22.5000001 135.0000001 0 4 -107 99 108 -103 
53 -9.99999993922529e-08 -9.99999993922529e-08 119.9999999 22.5000001 22.5000001 120.0000001 0 4 -100 105 104 -107 
54 -9.99999993922529e-08 -9.99999993922529e-08 134.9999999 22.5000001 22.5000001 135.0000001 0 4 -98 106 102 -108 
55 -1e-07 -9.99999993922529e-08 134.9999999 1e-07 22.5000001 150.0000001 0 4 -109 112 111 -110 
56 22.4999999 -9.99999993922529e-08 134.9999999 22.5000001 22.5000001 150.0000001 0 4 -113 116 115 -114 
57 -9.99999993922529e-08 -1e-07 134.9999999 22.5000001 1e-07 150.0000001 0 4 -117 109 118 -113 
58 -9.99999993922529e-08 22.4999999 134.9999999 22.5000001 22.5000001 150.0000001 0 4 -119 111 120 -115 
59 -9.99999993922529e-08 -9.99999993922529e-08 134.9999999 22.5000001 22.5000001 135.0000001 0 4 -112 117 116 -119 
60 -9.99999993922529e-08 -9.99999993922529e-08 149.9999999 22.5000001 22.5000001 150.0000001 0 4 -110 118 114 -120 
61 -1e-07 -9.99999993922529e-08 149.9999999 1e-07 22.5000001 165.0000001 0 4 -121 124 123 -122 
62 22.4999999 -9.99999993922529e-08 149.9999999 22.5000001 22.5000001 165.0000001 0 4 -125 128 127 -126 
63 -9.99999993922529e-08 -1e-07 149.9999999 22.5000001 1e-07 165.0000001 0 4 -129 121 130 -125 
64 -9.99999993922529e-08 22.4999999 149.9999999 22.5000001 22.5000001 165.0000001 0 4 -131 123 132 -127 
65 -9.99999993922529e-08 -9.99999993922529e-08 149.9999999 22.5000001 22.5000001 150.0000001 0 4 -124 129 128 -131 
66 -9.99999993922529e-08 -9.99999993922529e-08 164.9999999 22.5000001 22.5000001 165.0000001 0 4 -122 130 126 -132 
1 -9.99999993922529e-08 -9.99999993922529e-08 -1.000000002804313e-07 22.5000001 22.5000001 15.0000001 0 6 -1 2 -3 4 -5 6 
2 -9.99999993922529e-08 -9.99999993922529e-08 14.9999999 22.5000001 22.5000001 30.0000001 0 6 -7 8 -9 10 -11 12 
3 -9.99999993922529e-08 -9.99999993922529e-08 29.9999999 22.5000001 22.5000001 45.0000001 0 6 -13 14 -15 16 -17 18 
4 -9.99999993922529e-08 -9.99999993922529e-08 44.9999999 22.5000001 22.5000001 60.0000001 0 6 -19 20 -21 22 -23 24 
5 -9.99999993922529e-08 -9.99999993922529e-08 59.9999999 22.5000001 22.5000001 75.00000009999999 0 6 -25 26 -27 28 -29 30 
6 -9.99999993922529e-08 -9.99999993922529e-08 74.99999990000001 22.5000001 22.5000001 90.00000009999999 0 6 -31 32 -33 34 -35 36 
7 -9.99999993922529e-08 -9.99999993922529e-08 89.99999990000001 22.5000001 22.5000001 105.0000001 0 6 -37 38 -39 40 -41 42 
8 -9.99999993922529e-08 -9.99999993922529e-08 104.9999999 22.5000001 22.5000001 120.0000001 0 6 -43 44 -45 46 -47 48 
9 -9.99999993922529e-08 -9.99999993922529e-08 119.9999999 22.5000001 22.5000001 135.0000001 0 6 -49 50 -51 52 -53 54 
10 -9.99999993922529e-08 -9.99999993922529e-08 134.9999999 22.5000001 22.5000001 150.0000001 0 6 -55 56 -57 58 -59 60 
11 -9.99999993922529e-08 -9.99999993922529e-08 149.9999999 22.5000001 22.5000001 165.0000001 0 6 -61 62 -63 64 -65 66 
$EndEntities
$Nodes
297 352 1 352
0 1 0 1
1
0 0 15
0 2 0 1
2
0 0 0
0 3 0 1
3
0 22.5 15
0 4 0 1
4
0 22.5 0
0 5 0 1
5
22.5 0 15
0 6 0 1
6
22.5 0 0
0 7 0 1
7
22.5 22.5 15
0 8 0 1
8
22.5 22.5 0
0 9 0 1
9
0 0 30
0 10 0 1
10
0 0 15
0 11 0 1
11
0 22.5 30
0 12 0 1
12
0 22.5 15
0 13 0 1
13
22.5 0 30
0 14 0 1
14
22.5 0 15
0 15 0 1
15
22.5 22.5 30
0 16 0 1
16
22.5 22.5 15
0 17 0 1
17
0 0 45
0 18 0 1
18
0 0 30
0 19 0 1
19
0 22.5 45
0 20 0 1
20
0 22.5 30
0 21 0 1
21
22.5 0 45
0 22 0 1
22
22.5 0 30
0 23 0 1
23
22.5 22.5 45
0 24 0 1
24
22.5 22.5 30
0 25 0 1
25
0 0 60
0 26 0 1
26
0 0 45
0 27 0 1
27
0 22.5 60
0 28 0 1
28
0 22.5 45
0 29 0 1
29
22.5 0 60
0 30 0 1
30
22.5 0 45
0 31 0 1
31
22.5 22.5 60
0 32 0 1
32
22.5 22.5 45
0 33 0 1
33
0 0 75
0 34 0 1
34
0 0 60
0 35 0 1
35
0 22.5 75
0 36 0 1
36
0 22.5 60
0 37 0 1
37
22.5 0 75
0 38 0 1
38
22.5 0 60
0 39 0 1
39
22.5 22.5 75
0 40 0 1
40
22.5 22.5 60
0 41 0 1
41
0 0 90
0 42 0 1
42
0 0 75
0 43 0 1
43
0 22.5 90
0 44 0 1
44
0 22.5 75
0 45 0 1
45
22.5 0 90
0 46 0 1
46
22.5 0 75
0 47 0 1
47
22.5 22.5 90
0 48 0 1
48
22.5 22.5 75
0 49 0 1
49
0 0 105
0 50 0 1
50
0 0 90
0 51 0 1
51
0 22.5 105
0 52 0 1
52
0 22.5 90
0 53 0 1
53
22.5 0 105
0 54 0 1
54
22.5 0 90
0 55 0 1
55
22.5 22.5 105
0 56 0 1
56
22.5 22.5 90
0 57 0 1
57
0 0 120
0 58 0 1
58
0 0 105
0 59 0 1
59
0 22.5 120
0 60 0 1
60
0 22.5 105
0 61 0 1
61
22.5 0 120
0 62 0 1
62
22.5 0 105
0 63 0 1
63
22.5 22.5 120
0 64 0 1
64
22.5 22.5 105
0 65 0 1
65
0 0 135
0 66 0 1
66
0 0 120
0 67 0 1
67
0 22.5 135
0 68 0 1
68
0 22.5 120
0 69 0 1
69
22.5 0 135
0 70 0 1
70
22.5 0 120
0 71 0 1
71
22.5 22.5 135
0 72 0 1
72
22.5 22.5 120
0 73 0 1
73
0 0 150
0 74 0 1
74
0 0 135
0 75 0 1
75
0 22.5 150
0 76 0 1
76
0 22.5 135
0 77 0 1
77
22.5 0 150
0 78 0 1
78
22.5 0 135
0 79 0 1
79
22.5 22.5 150
0 80 0 1
80
22.5 22.5 135
0 81 0 1
81
0 0 165
0 82 0 1
82
0 0 150
0 83 0 1
83
0 22.5 165
0 84 0 1
84
0 22.5 150
0 85 0 1
85
22.5 0 165
0 86 0 1
86
22.5 0 150
0 87 0 1
87
22.5 22.5 165
0 88 0 1
88
22.5 22.5 150
1 1 0 0
1 2 0 1
89
0 11.24999999999998 15
1 3 0 0
1 4 0 1
90
0 11.24999999999998 0
1 5 0 0
1 6 0 1
91
22.5 11.24999999999998 15
1 7 0 0
1 8 0 1
92
22.5 11.24999999999998 0
1 9 0 1
93
11.24999999999998 0 0
1 10 0 1
94
11.24999999999998 0 15
1 11 0 1
95
11.24999999999998 22.5 0
1 12 0 1
96
11.24999999999998 22.5 15
1 13 0 0
1 14 0 1
97
0 11.24999999999998 30
1 15 0 0
1 16 0 1
98
0 11.24999999999998 15
1 17 0 0
1 18 0 1
99
22.5 11.24999999999998 30
1 19 0 0
1 20 0 1
100
22.5 11.24999999999998 15
1 21 0 1
101
11.24999999999998 0 15
1 22 0 1
102
11.24999999999998 0 30
1 23 0 1
103
11.24999999999998 22.5 15
1 24 0 1
104
11.24999999999998 22.5 30
1 25 0 0
1 26 0 1
105
0 11.24999999999998 45
1 27 0 0
1 28 0 1
106
0 11.24999999999998 30
1 29 0 0
1 30 0 1
107
22.5 11.24999999999998 45
1 31 0 0
1 32 0 1
108
22.5 11.24999999999998 30
1 33 0 1
109
11.24999999999998 0 30
1 34 0 1
110
11.24999999999998 0 45
1 35 0 1
111
11.24999999999998 22.5 30
1 36 0 1
112
11.24999999999998 22.5 45
1 37 0 0
1 38 0 1
113
0 11.24999999999998 60
1 39 0 0
1 40 0 1
114
0 11.24999999999998 45
1 41 0 0
1 42 0 1
115
22.5 11.24999999999998 60
1 43 0 0
1 44 0 1
116
22.5 11.24999999999998 45
1 45 0 1
117
11.24999999999998 0 45
1 46 0 1
118
11.24999999999998 0 60
1 47 0 1
119
11.24999999999998 22.5 45
1 48 0 1
120
11.24999999999998 22.5 60
1 49 0 0
1 50 0 1
121
0 11.24999999999998 75
1 51 0 0
1 52 0 1
122
0 11.24999999999998 60
1 53 0 0
1 54 0 1
123
22.5 11.24999999999998 75
1 55 0 0
1 56 0 1
124
22.5 11.24999999999998 60
1 57 0 1
125
11.24999999999998 0 60
1 58 0 1
126
11.24999999999998 0 75
1 59 0 1
127
11.24999999999998 22.5 60
1 60 0 1
128
11.24999999999998 22.5 75
1 61 0 0
1 62 0 1
129
0 11.24999999999998 90
1 63 0 0
1 64 0 1
130
0 11.24999999999998 75
1 65 0 0
1 66 0 1
131
22.5 11.24999999999998 90
1 67 0 0
1 68 0 1
132
22.5 11.24999999999998 75
1 69 0 1
133
11.24999999999998 0 75
1 70 0 1
134
11.24999999999998 0 90
1 71 0 1
135
11.24999999999998 22.5 75
1 72 0 1
136
11.24999999999998 22.5 90
1 73 0 0
1 74 0 1
137
0 11.24999999999998 105
1 75 0 0
1 76 0 1
138
0 11.24999999999998 90
1 77 0 0
1 78 0 1
139
22.5 11.24999999999998 105
1 79 0 0
1 80 0 1
140
22.5 11.24999999999998 90
1 81 0 1
141
11.24999999999998 0 90
1 82 0 1
142
11.24999999999998 0 105
1 83 0 1
143
11.24999999999998 22.5 90
1 84 0 1
144
11.24999999999998 22.5 105
1 85 0 0
1 86 0 1
145
0 11.24999999999998 120
1 87 0 0
1 88 0 1
146
0 11.24999999999998 105
1 89 0 0
1 90 0 1
147
22.5 11.24999999999998 120
1 91 0 0
1 92 0 1
148
22.5 11.24999999999998 105
1 93 0 1
149
11.24999999999998 0 105
1 94 0 1
150
11.24999999999998 0 120
1 95 0 1
151
11.24999999999998 22.5 105
1 96 0 1
152
11.24999999999998 22.5 120
1 97 0 0
1 98 0 1
153
0 11.24999999999998 135
1 99 0 0
1 100 0 1
154
0 11.24999999999998 120
1 101 0 0
1 102 0 1
155
22.5 11.24999999999998 135
1 103 0 0
1 104 0 1
156
22.5 11.24999999999998 120
1 105 0 1
157
11.24999999999998 0 120
1 106 0 1
158
11.24999999999998 0 135
1 107 0 1
159
11.24999999999998 22.5 120
1 108 0 1
160
11.24999999999998 22.5 135
1 109 0 0
1 110 0 1
161
0 11.24999999999998 150
1 111 0 0
1 112 0 1
162
0 11.24999999999998 135
1 113 0 0
1 114 0 1
163
22.5 11.24999999999998 150
1 115 0 0
1 116 0 1
164
22.5 11.24999999999998 135
1 117 0 1
165
11.24999999999998 0 135
1 118 0 1
166
11.24999999999998 0 150
1 119 0 1
167
11.24999999999998 22.5 135
1 120 0 1
168
11.24999999999998 22.5 150
1 121 0 0
1 122 0 1
169
0 11.24999999999998 165
1 123 0 0
1 124 0 1
170
0 11.24999999999998 150
1 125 0 0
1 126 0 1
171
22.5 11.24999999999998 165
1 127 0 0
1 128 0 1
172
22.5 11.24999999999998 150
1 129 0 1
173
11.24999999999998 0 150
1 130 0 1
174
11.24999999999998 0 165
1 131 0 1
175
11.24999999999998 22.5 150
1 132 0 1
176
11.24999999999998 22.5 165
2 1 0 2
177
178
0 7.23214285714285 7.5
0 14.94642857142856 7.5
2 2 0 2
179
180
22.5 7.23214285714285 7.5
22.5 14.94642857142856 7.5
2 3 0 2
181
182
7.23214285714285 0 7.5
14.94642857142856 0 7.5
2 4 0 2
183
184
7.23214285714285 22.5 7.5
14.94642857142856 22.5 7.5
2 5 0 4
185
186
187
188
16.61875911078717 16.61875911078717 0
8.437499999999991 14.0625 0
14.60573068513119 8.043230685131189 0
6.328125 6.328125 0
2 6 0 4
189
190
191
192
16.61875911078717 16.61875911078717 15
8.437499999999991 14.0625 15
14.60573068513119 8.043230685131189 15
6.328125 6.328125 15
2 7 0 2
193
194
0 7.23214285714285 22.5
0 14.94642857142856 22.5
2 8 0 2
195
196
22.5 7.23214285714285 22.5
22.5 14.94642857142856 22.5
2 9 0 2
197
198
7.23214285714285 0 22.5
14.94642857142856 0 22.5
2 10 0 2
199
200
7.23214285714285 22.5 22.5
14.94642857142856 22.5 22.5
2 11 0 4
201
202
203
204
16.61875911078717 16.61875911078717 15
8.437499999999991 14.0625 15
14.60573068513119 8.043230685131189 15
6.328125 6.328125 15
2 12 0 4
205
206
207
208
16.61875911078717 16.61875911078717 30
8.437499999999991 14.0625 30
14.60573068513119 8.043230685131189 30
6.328125 6.328125 30
2 13 0 2
209
210
0 7.23214285714285 37.5
0 14.94642857142856 37.5
2 14 0 2
211
212
22.5 7.23214285714285 37.5
22.5 14.94642857142856 37.5
2 15 0 2
213
214
7.23214285714285 0 37.5
14.94642857142856 0 37.5
2 16 0 2
215
216
7.23214285714285 22.5 37.5
14.94642857142856 22.5 37.5
2 17 0 4
217
218
219
220
16.61875911078717 16.61875911078717 30
8.437499999999991 14.0625 30
14.60573068513119 8.043230685131189 30
6.328125 6.328125 30
2 18 0 4
221
222
223
224
16.61875911078717 16.61875911078717 45
8.437499999999991 14.0625 45
14.60573068513119 8.043230685131189 45
6.328125 6.328125 45
2 19 0 2
225
226
0 7.23214285714285 52.5
0 14.94642857142856 52.5
2 20 0 2
227
228
22.5 7.23214285714285 52.5
22.5 14.94642857142856 52.5
2 21 0 2
229
230
7.23214285714285 0 52.5
14.94642857142856 0 52.5
2 22 0 2
231
232
7.23214285714285 22.5 52.5
14.94642857142856 22.5 52.5
2 23 0 4
233
234
235
236
16.61875911078717 16.61875911078717 45
8.437499999999991 14.0625 45
14.60573068513119 8.043230685131189 45
6.328125 6.328125 45
2 24 0 4
237
238
239
240
16.61875911078717 16.61875911078717 60
8.437499999999991 14.0625 60
14.60573068513119 8.043230685131189 60
6.328125 6.328125 60
2 25 0 2
241
242
0 7.23214285714285 67.5
0 14.94642857142856 67.5
2 26 0 2
243
244
22.5 7.23214285714285 67.5
22.5 14.94642857142856 67.5
2 27 0 2
245
246
7.23214285714285 0 67.5
14.94642857142856 0 67.5
2 28 0 2
247
248
7.23214285714285 22.5 67.5
14.94642857142856 22.5 67.5
2 29 0 4
249
250
251
252
16.61875911078717 16.61875911078717 60
8.437499999999991 14.0625 60
14.60573068513119 8.043230685131189 60
6.328125 6.328125 60
2 30 0 4
253
254
255
256
16.61875911078717 16.61875911078717 75
8.437499999999991 14.0625 75
14.60573068513119 8.043230685131189 75
6.328125 6.328125 75
2 31 0 2
257
258
0 7.23214285714285 82.5
0 14.94642857142856 82.5
2 32 0 2
259
260
22.5 7.23214285714285 82.5
22.5 14.94642857142856 82.5
2 33 0 2
261
262
7.23214285714285 0 82.5
14.94642857142856 0 82.5
2 34 0 2
263
264
7.23214285714285 22.5 82.5
14.94642857142856 22.5 82.5
2 35 0 4
265
266
267
268
16.61875911078717 16.61875911078717 75
8.437499999999991 14.0625 75
14.60573068513119 8.043230685131189 75
6.328125 6.328125 75
2 36 0 4
269
270
271
272
16.61875911078717 16.61875911078717 90
8.437499999999991 14.0625 90
14.60573068513119 8.043230685131189 90
6.328125 6.328125 90
2 37 0 2
273
274
0 7.23214285714285 97.5
0 14.94642857142856 97.5
2 38 0 2
275
276
22.5 7.23214285714285 97.5
22.5 14.94642857142856 97.5
2 39 0 2
277
278
7.23214285714285 0 97.5
14.94642857142856 0 97.5
2 40 0 2
279
280
7.23214285714285 22.5 97.5
14.94642857142856 22.5 97.5
2 41 0 4
281
282
283
284
16.61875911078717 16.61875911078717 90
8.437499999999991 14.0625 90
14.60573068513119 8.043230685131189 90
6.328125 6.328125 90
2 42 0 4
285
286
287
288
16.61875911078717 16.61875911078717 105
8.437499999999991 14.0625 105
14.60573068513119 8.043230685131189 105
6.328125 6.328125 105
2 43 0 2
289
290
0 7.23214285714285 112.5
0 14.94642857142856 112.5
2 44 0 2
291
292
22.5 7.23214285714285 112.5
22.5 14.94642857142856 112.5
2 45 0 2
293
294
7.23214285714285 0 112.5
14.94642857142856 0 112.5
2 46 0 2
295
296
7.23214285714285 22.5 112.5
14.94642857142856 22.5 112.5
2 47 0 4
297
298
299
300
16.61875911078717 16.61875911078717 105
8.437499999999991 14.0625 105
14.60573068513119 8.043230685131189 105
6.328125 6.328125 105
2 48 0 4
301
302
303
304
16.61875911078717 16.61875911078717 120
8.437499999999991 14.0625 120
14.60573068513119 8.043230685131189 120
6.328125 6.328125 120
2 49 0 2
305
306
0 7.23214285714285 127.5
0 14.94642857142856 127.5
2 50 0 2
307
308
22.5 7.23214285714285 127.5
22.5 14.94642857142856 127.5
2 51 0 2
309
310
7.23214285714285 0 127.5
14.94642857142856 0 127.5
2 52 0 2
311
312
7.23214285714285 22.5 127.5
14.94642857142856 22.5 127.5
2 53 0 4
313
314
315
316
16.61875911078717 16.61875911078717 120
8.437499999999991 14.0625 120
14.60573068513119 8.043230685131189 120
6.328125 6.328125 120
2 54 0 4
317
318
319
320
16.61875911078717 16.61875911078717 135
8.437499999999991 14.0625 135
14.60573068513119 8.043230685131189 135
6.328125 6.328125 135
2 55 0 2
321
322
0 7.23214285714285 142.5
0 14.94642857142856 142.5
2 56 0 2
323
324
22.5 7.23214285714285 142.5
22.5 14.94642857142856 142.5
2 57 0 2
325
326
7.23214285714285 0 142.5
14.94642857142856 0 142.5
2 58 0 2
327
328
7.23214285714285 22.5 142.5
14.94642857142856 22.5 142.5
2 59 0 4
329
330
331
332
16.61875911078717 16.61875911078717 135
8.437499999999991 14.0625 135
14.60573068513119 8.043230685131189 135
6.328125 6.328125 135
2 60 0 4
333
334
335
336
16.61875911078717 16.61875911078717 150
8.437499999999991 14.0625 150
14.60573068513119 8.043230685131189 150
6.328125 6.328125 150
2 61 0 2
337
338
0 7.23214285714285 157.5
0 14.94642857142856 157.5
2 62 0 2
339
340
22.5 7.23214285714285 157.5
22.5 14.94642857142856 157.5
2 63 0 2
341
342
7.23214285714285 0 157.5
14.94642857142856 0 157.5
2 64 0 2
343
344
7.23214285714285 22.5 157.5
14.94642857142856 22.5 157.5
2 65 0 4
345
346
347
348
16.61875911078717 16.61875911078717 150
8.437499999999991 14.0625 150
14.60573068513119 8.043230685131189 150
6.328125 6.328125 150
2 66 0 4
349
350
351
352
16.61875911078717 16.61875911078717 165
8.437499999999991 14.0625 165
14.60573068513119 8.043230685131189 165
6.328125 6.328125 165
3 1 0 0
3 2 0 0
3 3 0 0
3 4 0 0
3 5 0 0
3 6 0 0
3 7 0 0
3 8 0 0
3 9 0 0
3 10 0 0
3 11 0 0
$EndNodes
$Elements
297 1694 1 1694
0 1 15 1
1 1 
0 2 15 1
2 2 
0 3 15 1
3 3 
0 4 15 1
4 4 
0 5 15 1
5 5 
0 6 15 1
6 6 
0 7 15 1
7 7 
0 8 15 1
8 8 
0 9 15 1
9 9 
0 10 15 1
10 10 
0 11 15 1
11 11 
0 12 15 1
12 12 
0 13 15 1
13 13 
0 14 15 1
14 14 
0 15 15 1
15 15 
0 16 15 1
16 16 
0 17 15 1
17 17 
0 18 15 1
18 18 
0 19 15 1
19 19 
0 20 15 1
20 20 
0 21 15 1
21 21 
0 22 15 1
22 22 
0 23 15 1
23 23 
0 24 15 1
24 24 
0 25 15 1
25 25 
0 26 15 1
26 26 
0 27 15 1
27 27 
0 28 15 1
28 28 
0 29 15 1
29 29 
0 30 15 1
30 30 
0 31 15 1
31 31 
0 32 15 1
32 32 
0 33 15 1
33 33 
0 34 15 1
34 34 
0 35 15 1
35 35 
0 36 15 1
36 36 
0 37 15 1
37 37 
0 38 15 1
38 38 
0 39 15 1
39 39 
0 40 15 1
40 40 
0 41 15 1
41 41 
0 42 15 1
42 42 
0 43 15 1
43 43 
0 44 15 1
44 44 
0 45 15 1
45 45 
0 46 15 1
46 46 
0 47 15 1
47 47 
0 48 15 1
48 48 
0 49 15 1
49 49 
0 50 15 1
50 50 
0 51 15 1
51 51 
0 52 15 1
52 52 
0 53 15 1
53 53 
0 54 15 1
54 54 
0 55 15 1
55 55 
0 56 15 1
56 56 
0 57 15 1
57 57 
0 58 15 1
58 58 
0 59 15 1
59 59 
0 60 15 1
60 60 
0 61 15 1
61 61 
0 62 15 1
62 62 
0 63 15 1
63 63 
0 64 15 1
64 64 
0 65 15 1
65 65 
0 66 15 1
66 66 
0 67 15 1
67 67 
0 68 15 1
68 68 
0 69 15 1
69 69 
0 70 15 1
70 70 
0 71 15 1
71 71 
0 72 15 1
72 72 
0 73 15 1
73 73 
0 74 15 1
74 74 
0 75 15 1
75 75 
0 76 15 1
76 76 
0 77 15 1
77 77 
0 78 15 1
78 78 
0 79 15 1
79 79 
0 80 15 1
80 80 
0 81 15 1
81 81 
0 82 15 1
82 82 
0 83 15 1
83 83 
0 84 15 1
84 84 
0 85 15 1
85 85 
0 86 15 1
86 86 
0 87 15 1
87 87 
0 88 15 1
88 88 
1 1 1 1
89 2 1 
1 2 1 2
90 1 89 
91 89 3 
1 3 1 1
92 4 3 
1 4 1 2
93 2 90 
94 90 4 
1 5 1 1
95 6 5 
1 6 1 2
96 5 91 
97 91 7 
1 7 1 1
98 8 7 
1 8 1 2
99 6 92 
100 92 8 
1 9 1 2
101 2 93 
102 93 6 
1 10 1 2
103 1 94 
104 94 5 
1 11 1 2
105 4 95 
106 95 8 
1 12 1 2
107 3 96 
108 96 7 
1 13 1 1
109 10 9 
1 14 1 2
110 9 97 
111 97 11 
1 15 1 1
112 12 11 
1 16 1 2
113 10 98 
114 98 12 
1 17 1 1
115 14 13 
1 18 1 2
116 13 99 
117 99 15 
1 19 1 1
118 16 15 
1 20 1 2
119 14 100 
120 100 16 
1 21 1 2
121 10 101 
122 101 14 
1 22 1 2
123 9 102 
124 102 13 
1 23 1 2
125 12 103 
126 103 16 
1 24 1 2
127 11 104 
128 104 15 
1 25 1 1
129 18 17 
1 26 1 2
130 17 105 
131 105 19 
1 27 1 1
132 20 19 
1 28 1 2
133 18 106 
134 106 20 
1 29 1 1
135 22 21 
1 30 1 2
136 21 107 
137 107 23 
1 31 1 1
138 24 23 
1 32 1 2
139 22 108 
140 108 24 
1 33 1 2
141 18 109 
142 109 22 
1 34 1 2
143 17 110 
144 110 21 
1 35 1 2
145 20 111 
146 111 24 
1 36 1 2
147 19 112 
148 112 23 
1 37 1 1
149 26 25 
1 38 1 2
150 25 113 
151 113 27 
1 39 1 1
152 28 27 
1 40 1 2
153 26 114 
154 114 28 
1 41 1 1
155 30 29 
1 42 1 2
156 29 115 
157 115 31 
1 43 1 1
158 32 31 
1 44 1 2
159 30 116 
160 116 32 
1 45 1 2
161 26 117 
162 117 30 
1 46 1 2
163 25 118 
164 118 29 
1 47 1 2
165 28 119 
166 119 32 
1 48 1 2
167 27 120 
168 120 31 
1 49 1 1
169 34 33 
1 50 1 2
170 33 121 
171 121 35 
1 51 1 1
172 36 35 
1 52 1 2
173 34 122 
174 122 36 
1 53 1 1
175 38 37 
1 54 1 2
176 37 123 
177 123 39 
1 55 1 1
178 40 39 
1 56 1 2
179 38 124 
180 124 40 
1 57 1 2
181 34 125 
182 125 38 
1 58 1 2
183 33 126 
184 126 37 
1 59 1 2
185 36 127 
186 127 40 
1 60 1 2
187 35 128 
188 128 39 
1 61 1 1
189 42 41 
1 62 1 2
190 41 129 
191 129 43 
1 63 1 1
192 44 43 
1 64 1 2
193 42 130 
194 130 44 
1 65 1 1
195 46 45 
1 66 1 2
196 45 131 
197 131 47 
1 67 1 1
198 48 47 
1 68 1 2
199 46 132 
200 132 48 
1 69 1 2
201 42 133 
202 133 46 
1 70 1 2
203 41 134 
204 134 45 
1 71 1 2
205 44 135 
206 135 48 
1 72 1 2
207 43 136 
208 136 47 
1 73 1 1
209 50 49 
1 74 1 2
210 49 137 
211 137 51 
1 75 1 1
212 52 51 
1 76 1 2
213 50 138 
214 138 52 
1 77 1 1
215 54 53 
1 78 1 2
216 53 139 
217 139 55 
1 79 1 1
218 56 55 
1 80 1 2
219 54 140 
220 140 56 
1 81 1 2
221 50 141 
222 141 54 
1 82 1 2
223 49 142 
224 142 53 
1 83 1 2
225 52 143 
226 143 56 
1 84 1 2
227 51 144 
228 144 55 
1 85 1 1
229 58 57 
1 86 1 2
230 57 145 
231 145 59 
1 87 1 1
232 60 59 
1 88 1 2
233 58 146 
234 146 60 
1 89 1 1
235 62 61 
1 90 1 2
236 61 147 
237 147 63 
1 91 1 1
238 64 63 
1 92 1 2
239 62 148 
240 148 64 
1 93 1 2
241 58 149 
242 149 62 
1 94 1 2
243 57 150 
244 150 61 
1 95 1 2
245 60 151 
246 151 64 
1 96 1 2
247 59 152 
248 152 63 
1 97 1 1
249 66 65 
1 98 1 2
250 65 153 
251 153 67 
1 99 1 1
252 68 67 
1 100 1 2
253 66 154 
254 154 68 
1 101 1 1
255 70 69 
1 102 1 2
256 69 155 
257 155 71 
1 103 1 1
258 72 71 
1 104 1 2
259 70 156 
260 156 72 
1 105 1 2
261 66 157 
262 157 70 
1 106 1 2
263 65 158 
264 158 69 
1 107 1 2
265 68 159 
266 159 72 
1 108 1 2
267 67 160 
268 160 71 
1 109 1 1
269 74 73 
1 110 1 2
270 73 161 
271 161 75 
1 111 1 1
272 76 75 
1 112 1 2
273 74 162 
274 162 76 
1 113 1 1
275 78 77 
1 114 1 2
276 77 163 
277 163 79 
1 115 1 1
278 80 79 
1 116 1 2
279 78 164 
280 164 80 
1 117 1 2
281 74 165 
282 165 78 
1 118 1 2
283 73 166 
284 166 77 
1 119 1 2
285 76 167 
286 167 80 
1 120 1 2
287 75 168 
288 168 79 
1 121 1 1
289 82 81 
1 122 1 2
290 81 169 
291 169 83 
1 123 1 1
292 84 83 
1 124 1 2
293 82 170 
294 170 84 
1 125 1 1
295 86 85 
1 126 1 2
296 85 171 
297 171 87 
1 127 1 1
298 88 87 
1 128 1 2
299 86 172 
300 172 88 
1 129 1 2
301 82 173 
302 173 86 
1 130 1 2
303 81 174 
304 174 85 
1 131 1 2
305 84 175 
306 175 88 
1 132 1 2
307 83 176 
308 176 87 
2 1 2 8
309 2 1 177 
310 1 89 177 
311 90 2 177 
312 3 4 178 
313 89 3 178 
314 4 90 178 
315 177 89 178 
316 90 177 178 
2 2 2 8
317 6 179 5 
318 5 179 91 
319 92 179 6 
320 7 180 8 
321 91 180 7 
322 8 180 92 
323 179 180 91 
324 92 180 179 
2 3 2 8
325 1 2 181 
326 94 1 181 
327 2 93 181 
328 6 5 182 
329 5 94 182 
330 93 6 182 
331 181 93 182 
332 94 181 182 
2 4 2 8
333 3 183 4 
334 96 183 3 
335 4 183 95 
336 8 184 7 
337 7 184 96 
338 95 184 8 
339 183 184 95 
340 96 184 183 
2 5 2 14
341 2 90 188 
342 93 2 188 
343 90 4 186 
344 4 95 186 
345 92 6 187 
346 6 93 187 
347 8 92 185 
348 95 8 185 
349 90 186 188 
350 185 92 187 
351 187 93 188 
352 95 185 186 
353 186 185 187 
354 186 187 188 
2 6 2 14
355 1 192 89 
356 94 192 1 
357 89 190 3 
358 3 190 96 
359 91 191 5 
360 5 191 94 
361 7 189 91 
362 96 189 7 
363 89 192 190 
364 189 191 91 
365 191 192 94 
366 96 190 189 
367 190 191 189 
368 190 192 191 
2 7 2 8
369 10 9 193 
370 9 97 193 
371 98 10 193 
372 11 12 194 
373 97 11 194 
374 12 98 194 
375 193 97 194 
376 98 193 194 
2 8 2 8
377 14 195 13 
378 13 195 99 
379 100 195 14 
380 15 196 16 
381 99 196 15 
382 16 196 100 
383 195 196 99 
384 100 196 195 
2 9 2 8
385 9 10 197 
386 102 9 197 
387 10 101 197 
388 14 13 198 
389 13 102 198 
390 101 14 198 
391 197 101 198 
392 102 197 198 
2 10 2 8
393 11 199 12 
394 104 199 11 
395 12 199 103 
396 16 200 15 
397 15 200 104 
398 103 200 16 
399 199 200 103 
400 104 200 199 
2 11 2 14
401 10 98 204 
402 101 10 204 
403 98 12 202 
404 12 103 202 
405 100 14 203 
406 14 101 203 
407 16 100 201 
408 103 16 201 
409 98 202 204 
410 201 100 203 
411 203 101 204 
412 103 201 202 
413 202 201 203 
414 202 203 204 
2 12 2 14
415 9 208 97 
416 102 208 9 
417 97 206 11 
418 11 206 104 
419 99 207 13 
420 13 207 102 
421 15 205 99 
422 104 205 15 
423 97 208 206 
424 205 207 99 
425 207 208 102 
426 104 206 205 
427 206 207 205 
428 206 208 207 
2 13 2 8
429 18 17 209 
430 17 105 209 
431 106 18 209 
432 19 20 210 
433 105 19 210 
434 20 106 210 
435 209 105 210 
436 106 209 210 
2 14 2 8
437 22 211 21 
438 21 211 107 
439 108 211 22 
440 23 212 24 
441 107 212 23 
442 24 212 108 
443 211 212 107 
444 108 212 211 
2 15 2 8
445 17 18 213 
446 110 17 213 
447 18 109 213 
448 22 21 214 
449 21 110 214 
450 109 22 214 
451 213 109 214 
452 110 213 214 
2 16 2 8
453 19 215 20 
454 112 215 19 
455 20 215 111 
456 24 216 23 
457 23 216 112 
458 111 216 24 
459 215 216 111 
460 112 216 215 
2 17 2 14
461 18 106 220 
462 109 18 220 
463 106 20 218 
464 20 111 218 
465 108 22 219 
466 22 109 219 
467 24 108 217 
468 111 24 217 
469 106 218 220 
470 217 108 219 
471 219 109 220 
472 111 217 218 
473 218 217 219 
474 218 219 220 
2 18 2 14
475 17 224 105 
476 110 224 17 
477 105 222 19 
478 19 222 112 
479 107 223 21 
480 21 223 110 
481 23 221 107 
482 112 221 23 
483 105 224 222 
484 221 223 107 
485 223 224 110 
486 112 222 221 
487 222 223 221 
488 222 224 223 
2 19 2 8
489 26 25 225 
490 25 113 225 
491 114 26 225 
492 27 28 226 
493 113 27 226 
494 28 114 226 
495 225 113 226 
496 114 225 226 
2 20 2 8
497 30 227 29 
498 29 227 115 
499 116 227 30 
500 31 228 32 
501 115 228 31 
502 32 228 116 
503 227 228 115 
504 116 228 227 
2 21 2 8
505 25 26 229 
506 118 25 229 
507 26 117 229 
508 30 29 230 
509 29 118 230 
510 117 30 230 
511 229 117 230 
512 118 229 230 
2 22 2 8
513 27 231 28 
514 120 231 27 
515 28 231 119 
516 32 232 31 
517 31 232 120 
518 119 232 32 
519 231 232 119 
520 120 232 231 
2 23 2 14
521 26 114 236 
522 117 26 236 
523 114 28 234 
524 28 119 234 
525 116 30 235 
526 30 117 235 
527 32 116 233 
528 119 32 233 
529 114 234 236 
530 233 116 235 
531 235 117 236 
532 119 233 234 
533 234 233 235 
534 234 235 236 
2 24 2 14
535 25 240 113 
536 118 240 25 
537 113 238 27 
538 27 238 120 
539 115 239 29 
540 29 239 118 
541 31 237 115 
542 120 237 31 
543 113 240 238 
544 237 239 115 
545 239 240 118 
546 120 238 237 
547 238 239 237 
548 238 240 239 
2 25 2 8
549 34 33 241 
550 33 121 241 
551 122 34 241 
552 35 36 242 
553 121 35 242 
554 36 122 242 
555 241 121 242 
556 122 241 242 
2 26 2 8
557 38 243 37 
558 37 243 123 
559 124 243 38 
560 39 244 40 
561 123 244 39 
562 40 244 124 
563 243 244 123 
564 124 244 243 
2 27 2 8
565 33 34 245 
566 126 33 245 
567 34 125 245 
568 38 37 246 
569 37 126 246 
570 125 38 246 
571 245 125 246 
572 126 245 246 
2 28 2 8
573 35 247 36 
574 128 247 35 
575 36 247 127 
576 40 248 39 
577 39 248 128 
578 127 248 40 
579 247 248 127 
580 128 248 247 
2 29 2 14
581 34 122 252 
582 125 34 252 
583 122 36 250 
584 36 127 250 
585 124 38 251 
586 38 125 251 
587 40 124 249 
588 127 40 249 
589 122 250 252 
590 249 124 251 
591 251 125 252 
592 127 249 250 
593 250 249 251 
594 250 251 252 
2 30 2 14
595 33 256 121 
596 126 256 33 
597 121 254 35 
598 35 254 128 
599 123 255 37 
600 37 255 126 
601 39 253 123 
602 128 253 39 
603 121 256 254 
604 253 255 123 
605 255 256 126 
606 128 254 253 
607 254 255 253 
608 254 256 255 
2 31 2 8
609 42 41 257 
610 41 129 257 
611 130 42 257 
612 43 44 258 
613 129 43 258 
614 44 130 258 
615 257 129 258 
616 130 257 258 
2 32 2 8
617 46 259 45 
618 45 259 131 
619 132 259 46 
620 47 260 48 
621 131 260 47 
622 48 260 132 
623 259 260 131 
624 132 260 259 
2 33 2 8
625 41 42 261 
626 134 41 261 
627 42 133 261 
628 46 45 262 
629 45 134 262 
630 133 46 262 
631 261 133 262 
632 134 261 262 
2 34 2 8
633 43 263 44 
634 136 263 43 
635 44 263 135 
636 48 264 47 
637 47 264 136 
638 135 264 48 
639 263 264 135 
640 136 264 263 
2 35 2 14
641 42 130 268 
642 133 42 268 
643 130 44 266 
644 44 135 266 
645 132 46 267 
646 46 133 267 
647 48 132 265 
648 135 48 265 
649 130 266 268 
650 265 132 267 
651 267 133 268 
652 135 265 266 
653 266 265 267 
654 266 267 268 
2 36 2 14
655 41 272 129 
656 134 272 41 
657 129 270 43 
658 43 270 136 
659 131 271 45 
660 45 271 134 
661 47 269 131 
662 136 269 47 
663 129 272 270 
664 269 271 131 
665 271 272 134 
666 136 270 269 
667 270 271 269 
668 270 272 271 
2 37 2 8
669 50 49 273 
670 49 137 273 
671 138 50 273 
672 51 52 274 
673 137 51 274 
674 52 138 274 
675 273 137 274 
676 138 273 274 
2 38 2 8
677 54 275 53 
678 53 275 139 
679 140 275 54 
680 55 276 56 
681 139 276 55 
682 56 276 140 
683 275 276 139 
684 140 276 275 
2 39 2 8
685 49 50 277 
686 142 49 277 
687 50 141 277 
688 54 53 278 
689 53 142 278 
690 141 54 278 
691 277 141 278 
692 142 277 278 
2 40 2 8
693 51 279 52 
694 144 279 51 
695 52 279 143 
696 56 280 55 
697 55 280 144 
698 143 280 56 
699 279 280 143 
700 144 280 279 
2 41 2 14
701 50 138 284 
702 141 50 284 
703 138 52 282 
704 52 143 282 
705 140 54 283 
706 54 141 283 
707 56 140 281 
708 143 56 281 
709 138 282 284 
710 281 140 283 
711 283 141 284 
712 143 281 282 
713 282 281 283 
714 282 283 284 
2 42 2 14
715 49 288 137 
716 142 288 49 
717 137 286 51 
718 51 286 144 
719 139 287 53 
720 53 287 142 
721 55 285 139 
722 144 285 55 
723 137 288 286 
724 285 287 139 
725 287 288 142 
726 144 286 285 
727 286 287 285 
728 286 288 287 
2 43 2 8
729 58 57 289 
730 57 145 289 
731 146 58 289 
732 59 60 290 
733 145 59 290 
734 60 146 290 
735 289 145 290 
736 146 289 290 
2 44 2 8
737 62 291 61 
738 61 291 147 
739 148 291 62 
740 63 292 64 
741 147 292 63 
742 64 292 148 
743 291 292 147 
744 148 292 291 
2 45 2 8
745 57 58 293 
746 150 57 293 
747 58 149 293 
748 62 61 294 
749 61 150 294 
750 149 62 294 
751 293 149 294 
752 150 293 294 
2 46 2 8
753 59 295 60 
754 152 295 59 
755 60 295 151 
756 64 296 63 
757 63 296 152 
758 151 296 64 
759 295 296 151 
760 152 296 295 
2 47 2 14
761 58 146 300 
762 149 58 300 
763 146 60 298 
764 60 151 298 
765 148 62 299 
766 62 149 299 
767 64 148 297 
768 151 64 297 
769 146 298 300 
770 297 148 299 
771 299 149 300 
772 151 297 298 
773 298 297 299 
774 298 299 300 
2 48 2 14
775 57 304 145 
776 150 304 57 
777 145 302 59 
778 59 302 152 
779 147 303 61 
780 61 303 150 
781 63 301 147 
782 152 301 63 
783 145 304 302 
784 301 303 147 
785 303 304 150 
786 152 302 301 
787 302 303 301 
788 302 304 303 
2 49 2 8
789 66 65 305 
790 65 153 305 
791 154 66 305 
792 67 68 306 
793 153 67 306 
794 68 154 306 
795 305 153 306 
796 154 305 306 
2 50 2 8
797 70 307 69 
798 69 307 155 
799 156 307 70 
800 71 308 72 
801 155 308 71 
802 72 308 156 
803 307 308 155 
804 156 308 307 
2 51 2 8
805 65 66 309 
806 158 65 309 
807 66 157 309 
808 70 69 310 
809 69 158 310 
810 157 70 310 
811 309 157 310 
812 158 309 310 
2 52 2 8
813 67 311 68 
814 160 311 67 
815 68 311 159 
816 72 312 71 
817 71 312 160 
818 159 312 72 
819 311 312 159 
820 160 312 311 
2 53 2 14
821 66 154 316 
822 157 66 316 
823 154 68 314 
824 68 159 314 
825 156 70 315 
826 70 157 315 
827 72 156 313 
828 159 72 313 
829 154 314 316 
830 313 156 315 
831 315 157 316 
832 159 313 314 
833 314 313 315 
834 314 315 316 
2 54 2 14
835 65 320 153 
836 158 320 65 
837 153 318 67 
838 67 318 160 
839 155 319 69 
840 69 319 158 
841 71 317 155 
842 160 317 71 
843 153 320 318 
844 317 319 155 
845 319 320 158 
846 160 318 317 
847 318 319 317 
848 318 320 319 
2 55 2 8
849 74 73 321 
850 73 161 321 
851 162 74 321 
852 75 76 322 
853 161 75 322 
854 76 162 322 
855 321 161 322 
856 162 321 322 
2 56 2 8
857 78 323 77 
858 77 323 163 
859 164 323 78 
860 79 324 80 
861 163 324 79 
862 80 324 164 
863 323 324 163 
864 164 324 323 
2 57 2 8
865 73 74 325 
866 166 73 325 
867 74 165 325 
868 78 77 326 
869 77 166 326 
870 165 78 326 
871 325 165 326 
872 166 325 326 
2 58 2 8
873 75 327 76 
874 168 327 75 
875 76 327 167 
876 80 328 79 
877 79 328 168 
878 167 328 80 
879 327 328 167 
880 168 328 327 
2 59 2 14
881 74 162 332 
882 165 74 332 
883 162 76 330 
884 76 167 330 
885 164 78 331 
886 78 165 331 
887 80 164 329 
888 167 80 329 
889 162 330 332 
890 329 164 331 
891 331 165 332 
892 167 329 330 
893 330 329 331 
894 330 331 332 
2 60 2 14
895 73 336 161 
896 166 336 73 
897 161 334 75 
898 75 334 168 
899 163 335 77 
900 77 335 166 
901 79 333 163 
902 168 333 79 
903 161 336 334 
904 333 335 163 
905 335 336 166 
906 168 334 333 
907 334 335 333 
908 334 336 335 
2 61 2 8
909 82 81 337 
910 81 169 337 
911 170 82 337 
912 83 84 338 
913 169 83 338 
914 84 170 338 
915 337 169 338 
916 170 337 338 
2 62 2 8
917 86 339 85 
918 85 339 171 
919 172 339 86 
920 87 340 88 
921 171 340 87 
922 88 340 172 
923 339 340 171 
924 172 340 339 
2 63 2 8
925 81 82 341 
926 174 81 341 
927 82 173 341 
928 86 85 342 
929 85 174 342 
930 173 86 342 
931 341 173 342 
932 174 341 342 
2 64 2 8
933 83 343 84 
934 176 343 83 
935 84 343 175 
936 88 344 87 
937 87 344 176 
938 175 344 88 
939 343 344 175 
940 176 344 343 
2 65 2 14
941 82 170 348 
942 173 82 348 
943 170 84 346 
944 84 175 346 
945 172 86 347 
946 86 173 347 
947 88 172 345 
948 175 88 345 
949 170 346 348 
950 345 172 347 
951 347 173 348 
952 175 345 346 
953 346 345 347 
954 346 347 348 
2 66 2 14
955 81 352 169 
956 174 352 81 
957 169 350 83 
958 83 350 176 
959 171 351 85 
960 85 351 174 
961 87 349 171 
962 176 349 87 
963 169 352 350 
964 349 351 171 
965 351 352 174 
966 176 350 349 
967 350 351 349 
968 350 352 351 
3 1 4 66
969 180 191 189 185 
970 191 186 189 185 
971 192 181 188 191 
972 184 189 186 185 
973 188 186 192 191 
974 188 186 177 192 
975 185 180 191 187 
976 189 184 180 185 
977 191 186 185 187 
978 191 181 188 187 
979 188 186 191 187 
980 191 186 190 189 
981 192 186 190 191 
982 186 190 189 184 
983 188 177 181 192 
984 177 186 190 192 
985 181 191 182 187 
986 179 191 180 187 
987 190 178 186 177 
988 190 186 183 184 
989 179 182 191 187 
990 183 178 186 190 
991 187 181 188 93 
992 192 94 181 191 
993 186 90 188 177 
994 177 190 89 192 
995 180 185 92 187 
996 189 91 191 180 
997 187 182 181 93 
998 191 94 181 182 
999 189 190 96 184 
1000 184 186 95 185 
1001 178 190 89 177 
1002 90 186 178 177 
1003 179 180 92 187 
1004 180 91 191 179 
1005 183 96 190 184 
1006 184 186 183 95 
1007 177 1 2 181 
1008 4 178 183 3 
1009 179 5 182 6 
1010 180 184 7 8 
1011 186 4 178 183 
1012 178 183 3 190 
1013 5 182 191 179 
1014 187 179 182 6 
1015 8 180 184 185 
1016 184 7 189 180 
1017 177 2 188 181 
1018 181 177 1 192 
1019 186 4 183 95 
1020 96 3 183 190 
1021 190 3 178 89 
1022 90 186 4 178 
1023 182 191 94 5 
1024 93 187 182 6 
1025 91 5 191 179 
1026 92 179 187 6 
1027 89 1 177 192 
1028 90 2 188 177 
1029 94 181 1 192 
1030 181 2 188 93 
1031 185 8 180 92 
1032 91 189 7 180 
1033 95 8 184 185 
1034 7 189 96 184 
3 2 4 66
1035 201 196 205 203 
1036 201 205 206 203 
1037 197 204 208 207 
1038 200 205 206 201 
1039 208 204 206 207 
1040 206 193 204 208 
1041 196 207 205 203 
1042 200 196 205 201 
1043 205 207 206 203 
1044 197 204 207 203 
1045 203 206 204 207 
1046 201 206 202 203 
1047 206 203 204 202 
1048 206 202 200 201 
1049 197 204 193 208 
1050 202 193 204 206 
1051 198 197 207 203 
1052 195 207 196 203 
1053 193 202 194 206 
1054 206 202 199 200 
1055 195 198 207 203 
1056 202 199 194 206 
1057 207 208 197 102 
1058 197 204 203 101 
1059 98 193 204 202 
1060 193 206 97 208 
1061 196 201 100 203 
1062 205 99 207 196 
1063 197 207 102 198 
1064 203 198 197 101 
1065 104 205 206 200 
1066 202 103 200 201 
1067 194 193 206 97 
1068 202 98 193 194 
1069 195 196 100 203 
1070 196 99 207 195 
1071 104 206 199 200 
1072 202 103 199 200 
1073 10 197 193 9 
1074 194 199 12 11 
1075 195 13 198 14 
1076 15 196 200 16 
1077 199 12 202 194 
1078 11 194 199 206 
1079 13 198 207 195 
1080 203 195 198 14 
1081 196 205 15 200 
1082 196 200 16 201 
1083 10 197 204 193 
1084 9 197 193 208 
1085 202 103 12 199 
1086 199 11 206 104 
1087 98 202 12 194 
1088 206 11 194 97 
1089 207 102 198 13 
1090 101 203 198 14 
1091 99 13 207 195 
1092 100 195 203 14 
1093 204 197 10 101 
1094 208 9 197 102 
1095 193 204 10 98 
1096 193 97 9 208 
1097 201 16 196 100 
1098 205 104 15 200 
1099 99 205 15 196 
1100 16 200 103 201 
3 3 4 66
1101 212 223 221 217 
1102 221 223 222 217 
1103 224 213 220 223 
1104 216 221 222 217 
1105 220 223 218 224 
1106 218 209 220 224 
1107 217 212 223 219 
1108 221 216 212 217 
1109 223 218 217 219 
1110 223 213 220 219 
1111 223 220 218 219 
1112 223 218 222 217 
1113 224 218 222 223 
1114 222 218 216 217 
1115 213 220 209 224 
1116 209 218 222 224 
1117 213 223 214 219 
1118 211 223 212 219 
1119 209 218 210 222 
1120 222 218 215 216 
1121 211 214 223 219 
1122 215 210 218 222 
1123 223 224 213 110 
1124 213 109 220 219 
1125 106 209 220 218 
1126 105 209 222 224 
1127 212 217 108 219 
1128 221 107 223 212 
1129 213 223 110 214 
1130 109 213 214 219 
1131 221 222 112 216 
1132 216 218 111 217 
1133 218 106 209 210 
1134 222 210 209 105 
1135 211 212 108 219 
1136 212 107 223 211 
1137 215 112 222 216 
1138 216 218 215 111 
1139 17 18 209 213 
1140 20 210 215 19 
1141 211 21 214 22 
1142 212 216 23 24 
1143 218 20 210 215 
1144 210 215 19 222 
1145 21 214 223 211 
1146 219 211 214 22 
1147 216 23 221 212 
1148 24 212 216 217 
1149 209 18 220 213 
1150 213 209 17 224 
1151 112 19 215 222 
1152 218 20 215 111 
1153 106 218 20 210 
1154 222 19 210 105 
1155 223 110 214 21 
1156 219 214 109 22 
1157 108 211 219 22 
1158 107 21 223 211 
1159 18 109 220 213 
1160 209 220 18 106 
1161 17 213 224 110 
1162 209 105 17 224 
1163 217 24 212 108 
1164 111 24 216 217 
1165 107 221 23 212 
1166 23 221 112 216 
3 4 4 66
1167 228 239 237 233 
1168 239 234 237 233 
1169 240 229 236 239 
1170 232 237 234 233 
1171 240 236 238 239 
1172 225 236 238 240 
1173 233 228 239 235 
1174 232 228 237 233 
1175 239 234 233 235 
1176 239 229 236 235 
1177 236 234 239 235 
1178 239 234 238 237 
1179 236 234 238 239 
1180 237 234 238 232 
1181 236 225 229 240 
1182 234 236 238 225 
1183 229 239 230 235 
1184 228 227 239 235 
1185 238 226 234 225 
1186 234 231 238 232 
1187 227 230 239 235 
1188 234 231 226 238 
1189 235 229 236 117 
1190 239 240 229 118 
1191 234 114 236 225 
1192 225 238 113 240 
1193 237 115 239 228 
1194 116 228 233 235 
1195 229 239 118 230 
1196 235 230 229 117 
1197 119 232 234 233 
1198 120 237 238 232 
1199 226 238 113 225 
1200 114 234 226 225 
1201 227 228 116 235 
1202 115 227 239 228 
1203 120 238 231 232 
1204 232 234 231 119 
1205 225 25 26 229 
1206 226 231 28 27 
1207 230 227 29 30 
1208 31 228 232 32 
1209 231 28 234 226 
1210 231 226 238 27 
1211 235 227 230 30 
1212 239 230 227 29 
1213 228 237 31 232 
1214 228 232 32 233 
1215 26 236 225 229 
1216 229 225 25 240 
1217 27 238 231 120 
1218 234 28 231 119 
1219 114 234 28 226 
1220 226 238 27 113 
1221 239 118 230 29 
1222 117 235 230 30 
1223 29 227 239 115 
1224 235 116 227 30 
1225 26 236 229 117 
1226 113 25 225 240 
1227 26 236 114 225 
1228 25 229 240 118 
1229 233 32 228 116 
1230 237 120 31 232 
1231 115 237 31 228 
1232 119 32 232 233 
3 5 4 66
1233 249 244 253 251 
1234 249 253 250 251 
1235 256 245 252 251 
1236 248 253 250 249 
1237 252 250 256 251 
1238 250 241 252 256 
1239 244 255 253 251 
1240 253 248 244 249 
1241 253 255 254 251 
1242 245 256 255 251 
1243 255 256 254 251 
1244 253 254 250 251 
1245 256 250 254 251 
1246 250 254 253 248 
1247 245 252 241 256 
1248 241 250 254 256 
1249 245 255 246 251 
1250 243 255 244 251 
1251 241 250 242 254 
1252 254 250 247 248 
1253 243 246 255 251 
1254 247 242 250 254 
1255 251 245 252 125 
1256 256 126 245 255 
1257 122 241 252 250 
1258 121 241 254 256 
1259 244 249 124 251 
1260 253 123 255 244 
1261 251 246 245 125 
1262 255 126 245 246 
1263 253 254 128 248 
1264 250 127 248 249 
1265 250 122 241 242 
1266 254 242 241 121 
1267 243 244 124 251 
1268 244 123 255 243 
1269 250 127 247 248 
1270 247 128 254 248 
1271 33 34 241 245 
1272 36 242 247 35 
1273 243 37 246 38 
1274 244 248 39 40 
1275 242 250 36 247 
1276 242 247 35 254 
1277 37 246 255 243 
1278 251 243 246 38 
1279 40 244 248 249 
1280 248 39 253 244 
1281 245 241 33 256 
1282 34 252 241 245 
1283 250 127 36 247 
1284 128 35 247 254 
1285 122 250 36 242 
1286 254 35 242 121 
1287 246 255 126 37 
1288 125 251 246 38 
1289 123 37 255 243 
1290 124 243 251 38 
1291 241 121 33 256 
1292 34 252 245 125 
1293 126 245 33 256 
1294 241 252 34 122 
1295 249 40 244 124 
1296 123 253 39 244 
1297 248 127 40 249 
1298 39 253 128 248 
3 6 4 66
1299 260 271 269 265 
1300 271 266 269 265 
1301 272 261 268 271 
1302 269 266 264 265 
1303 268 266 272 271 
1304 266 257 268 272 
1305 265 260 271 267 
1306 264 260 269 265 
1307 271 266 265 267 
1308 271 261 268 267 
1309 268 266 271 267 
1310 271 266 270 269 
1311 272 266 270 271 
1312 269 266 270 264 
1313 261 268 257 272 
1314 257 266 270 272 
1315 271 261 267 262 
1316 260 259 271 267 
1317 258 257 266 270 
1318 266 263 270 264 
1319 267 259 271 262 
1320 266 263 258 270 
1321 272 134 261 271 
1322 267 261 268 133 
1323 129 257 270 272 
1324 130 257 268 266 
1325 269 131 271 260 
1326 132 260 265 267 
1327 133 267 261 262 
1328 271 134 261 262 
1329 269 270 136 264 
1330 266 135 264 265 
1331 266 130 257 258 
1332 270 258 257 129 
1333 131 259 271 260 
1334 259 260 132 267 
1335 266 135 263 264 
1336 270 263 136 264 
1337 41 42 257 261 
1338 258 263 44 43 
1339 259 45 262 46 
1340 47 260 264 48 
1341 263 44 266 258 
1342 43 258 263 270 
1343 262 267 259 46 
1344 271 259 45 262 
1345 269 47 260 264 
1346 260 264 48 265 
1347 42 268 257 261 
1348 261 257 41 272 
1349 136 43 263 270 
1350 266 135 44 263 
1351 130 266 44 258 
1352 270 43 258 129 
1353 262 133 267 46 
1354 45 134 271 262 
1355 45 259 271 131 
1356 267 132 259 46 
1357 257 268 42 130 
1358 257 129 41 272 
1359 134 261 41 272 
1360 42 268 261 133 
1361 265 48 260 132 
1362 131 269 47 260 
1363 47 269 136 264 
1364 48 264 135 265 
3 7 4 66
1365 281 276 285 283 
1366 281 285 286 283 
1367 277 284 288 287 
1368 280 285 286 281 
1369 288 284 286 287 
1370 286 273 284 288 
1371 276 287 285 283 
1372 285 280 276 281 
1373 285 287 286 283 
1374 287 277 284 283 
1375 284 286 287 283 
1376 281 286 282 283 
1377 286 284 282 283 
1378 286 282 280 281 
1379 277 284 273 288 
1380 282 273 284 286 
1381 283 287 277 278 
1382 275 287 276 283 
1383 273 282 274 286 
1384 286 282 279 280 
1385 283 275 287 278 
1386 279 274 282 286 
1387 288 142 277 287 
1388 277 141 284 283 
1389 138 273 284 282 
1390 273 286 137 288 
1391 276 281 140 283 
1392 285 139 287 276 
1393 287 142 277 278 
1394 277 141 283 278 
1395 285 286 144 280 
1396 282 143 280 281 
1397 282 138 273 274 
1398 274 273 286 137 
1399 275 276 140 283 
1400 276 139 287 275 
1401 282 143 279 280 
1402 279 144 286 280 
1403 50 277 273 49 
1404 52 274 279 51 
1405 278 275 53 54 
1406 276 280 55 56 
1407 274 282 52 279 
1408 274 279 51 286 
1409 53 287 275 278 
1410 278 283 275 54 
1411 56 276 280 281 
1412 280 55 285 276 
1413 50 277 284 273 
1414 49 277 273 288 
1415 144 51 279 286 
1416 282 143 52 279 
1417 286 51 274 137 
1418 138 282 52 274 
1419 287 53 142 278 
1420 141 283 278 54 
1421 53 287 139 275 
1422 140 275 283 54 
1423 273 284 50 138 
1424 273 137 49 288 
1425 277 49 142 288 
1426 50 277 141 284 
1427 280 143 56 281 
1428 281 56 276 140 
1429 139 285 55 276 
1430 55 285 144 280 
3 8 4 66
1431 292 303 301 297 
1432 301 303 302 297 
1433 293 300 304 299 
1434 296 301 302 297 
1435 304 300 302 299 
1436 300 302 289 304 
1437 297 292 303 299 
1438 301 296 292 297 
1439 297 303 302 299 
1440 303 293 304 299 
1441 303 304 302 299 
1442 297 302 298 299 
1443 302 300 298 299 
1444 296 302 298 297 
1445 293 300 289 304 
1446 302 300 289 298 
1447 299 303 293 294 
1448 291 303 292 299 
1449 302 290 298 289 
1450 298 295 302 296 
1451 299 291 303 294 
1452 298 295 290 302 
1453 303 304 293 150 
1454 293 149 300 299 
1455 298 146 300 289 
1456 302 145 289 304 
1457 292 297 148 299 
1458 301 147 303 292 
1459 150 293 303 294 
1460 293 149 299 294 
1461 301 302 152 296 
1462 296 298 151 297 
1463 146 298 290 289 
1464 290 302 145 289 
1465 291 292 148 299 
1466 292 147 303 291 
1467 302 295 152 296 
1468 296 298 295 151 
1469 293 58 57 289 
1470 290 295 60 59 
1471 294 291 61 62 
1472 292 296 63 64 
1473 295 60 298 290 
1474 59 290 295 302 
1475 291 61 303 294 
1476 294 299 291 62 
1477 64 292 296 297 
1478 296 63 301 292 
1479 58 293 300 289 
1480 289 57 293 304 
1481 152 59 295 302 
1482 298 60 295 151 
1483 146 298 60 290 
1484 302 59 290 145 
1485 149 299 294 62 
1486 61 150 303 294 
1487 148 291 299 62 
1488 147 61 303 291 
1489 304 57 293 150 
1490 58 293 149 300 
1491 146 58 300 289 
1492 145 57 289 304 
1493 297 64 292 148 
1494 147 301 63 292 
1495 151 64 296 297 
1496 63 301 152 296 
3 9 4 66
1497 308 319 317 313 
1498 319 314 317 313 
1499 320 309 316 319 
1500 312 317 314 313 
1501 316 314 320 319 
1502 316 314 305 320 
1503 313 308 319 315 
1504 317 312 308 313 
1505 319 314 313 315 
1506 319 309 316 315 
1507 316 314 319 315 
1508 319 314 318 317 
1509 320 314 318 319 
1510 317 314 318 312 
1511 316 305 309 320 
1512 305 314 318 320 
1513 309 319 310 315 
1514 308 307 319 315 
1515 318 306 314 305 
1516 314 311 318 312 
1517 307 310 319 315 
1518 314 311 306 318 
1519 320 158 309 319 
1520 315 309 316 157 
1521 305 318 153 320 
1522 314 154 316 305 
1523 317 155 319 308 
1524 156 308 313 315 
1525 315 310 309 157 
1526 319 158 309 310 
1527 312 314 159 313 
1528 160 317 318 312 
1529 154 314 306 305 
1530 306 318 153 305 
1531 155 307 319 308 
1532 307 308 156 315 
1533 160 318 311 312 
1534 312 314 311 159 
1535 305 65 66 309 
1536 306 311 68 67 
1537 310 307 69 70 
1538 308 312 71 72 
1539 311 68 314 306 
1540 67 306 311 318 
1541 315 307 310 70 
1542 319 310 307 69 
1543 72 308 312 313 
1544 312 71 317 308 
1545 66 316 305 309 
1546 309 305 65 320 
1547 311 67 318 160 
1548 314 68 311 159 
1549 318 67 306 153 
1550 154 314 68 306 
1551 310 319 158 69 
1552 157 315 310 70 
1553 69 307 319 155 
1554 315 156 307 70 
1555 66 316 309 157 
1556 66 316 154 305 
1557 153 65 305 320 
1558 158 309 65 320 
1559 317 160 71 312 
1560 313 72 308 156 
1561 155 317 71 308 
1562 159 72 312 313 
3 10 4 66
1563 324 335 333 329 
1564 335 330 333 329 
1565 336 325 332 335 
1566 328 333 330 329 
1567 336 332 334 335 
1568 334 321 332 336 
1569 329 324 335 331 
1570 333 328 324 329 
1571 329 335 330 331 
1572 335 325 332 331 
1573 330 335 332 331 
1574 335 330 334 333 
1575 335 330 332 334 
1576 333 330 334 328 
1577 325 332 321 336 
1578 330 321 332 334 
1579 335 325 331 326 
1580 323 335 324 331 
1581 321 330 322 334 
1582 330 327 334 328 
1583 331 323 335 326 
1584 327 322 330 334 
1585 331 325 332 165 
1586 335 336 325 166 
1587 162 321 332 330 
1588 161 321 334 336 
1589 324 329 164 331 
1590 333 163 335 324 
1591 165 331 325 326 
1592 325 335 166 326 
1593 328 330 167 329 
1594 168 333 334 328 
1595 330 162 321 322 
1596 334 322 321 161 
1597 323 324 164 331 
1598 324 163 335 323 
1599 168 334 327 328 
1600 328 330 327 167 
1601 73 74 321 325 
1602 76 322 327 75 
1603 326 323 77 78 
1604 324 328 79 80 
1605 322 327 75 334 
1606 330 76 322 327 
1607 323 77 335 326 
1608 326 331 323 78 
1609 80 324 328 329 
1610 328 79 333 324 
1611 74 332 321 325 
1612 325 321 73 336 
1613 327 75 334 168 
1614 330 76 327 167 
1615 162 330 76 322 
1616 334 75 322 161 
1617 326 165 331 78 
1618 77 166 335 326 
1619 163 77 335 323 
1620 164 323 331 78 
1621 321 332 74 162 
1622 321 161 73 336 
1623 73 325 336 166 
1624 74 332 325 165 
1625 333 168 79 328 
1626 329 80 324 164 
1627 163 333 79 324 
1628 167 80 328 329 
3 11 4 66
1629 345 340 349 347 
1630 345 349 346 347 
1631 341 348 352 347 
1632 344 349 346 345 
1633 352 348 346 347 
1634 337 348 346 352 
1635 340 351 349 347 
1636 349 344 340 345 
1637 351 346 349 347 
1638 351 341 352 347 
1639 351 352 346 347 
1640 351 346 350 349 
1641 346 350 352 351 
1642 346 350 349 344 
1643 341 348 337 352 
1644 346 350 337 352 
1645 341 351 342 347 
1646 340 339 351 347 
1647 350 338 346 337 
1648 350 346 343 344 
1649 339 342 351 347 
1650 343 338 346 350 
1651 351 352 341 174 
1652 341 173 348 347 
1653 346 170 348 337 
1654 350 169 337 352 
1655 349 171 351 340 
1656 172 340 345 347 
1657 174 341 351 342 
1658 173 341 342 347 
1659 344 346 175 345 
1660 349 350 176 344 
1661 170 346 338 337 
1662 338 350 169 337 
1663 171 339 351 340 
1664 339 340 172 347 
1665 343 176 350 344 
1666 344 346 343 175 
1667 341 82 81 337 
1668 84 338 343 83 
1669 342 339 85 86 
1670 340 344 87 88 
1671 338 343 83 350 
1672 346 84 338 343 
1673 351 342 339 85 
1674 342 339 86 347 
1675 88 340 344 345 
1676 344 87 349 340 
1677 82 341 348 337 
1678 337 81 341 352 
1679 176 83 343 350 
1680 346 84 343 175 
1681 350 83 338 169 
1682 170 346 84 338 
1683 351 174 342 85 
1684 86 173 342 347 
1685 339 172 86 347 
1686 85 339 351 171 
1687 352 81 341 174 
1688 170 82 348 337 
1689 82 341 173 348 
1690 169 81 337 352 
1691 345 88 340 172 
1692 171 349 87 340 
1693 175 88 344 345 
1694 87 349 176 344 
$EndElements
